<?xml version="1.0" encoding="utf-8"?>
<!-- Generator: Adobe Illustrator 23.0.1, SVG Export Plug-In . SVG Version: 6.00 Build 0)  -->
<svg version="1.1" id="logo" xmlns="http://www.w3.org/2000/svg" xmlns:xlink="http://www.w3.org/1999/xlink" x="0px" y="0px"
	 viewBox="0 0 595.3 595.3" style="enable-background:new 0 0 595.3 595.3;" xml:space="preserve">
<style type="text/css">
	.st0{fill:none;stroke:#000000;stroke-width:4;stroke-miterlimit:10;}
	.st1{fill:#2D2D2D;}
</style>
<g id="taku">
	<line class="st0" x1="297.6" y1="297.6" x2="120.9" y2="297.6"/>
	<line class="st0" x1="297.6" y1="297.6" x2="474.4" y2="297.6"/>
	<line class="st0" x1="120.9" y1="297.6" x2="120.9" y2="198.5"/>
	<line class="st0" x1="474.4" y1="297.6" x2="474.4" y2="396.8"/>
	<line class="st0" x1="120.9" y1="297.6" x2="120.9" y2="396.8"/>
	<line class="st0" x1="474.4" y1="297.6" x2="474.4" y2="198.5"/>
	<line class="st0" x1="120.9" y1="396.8" x2="298.9" y2="396.8"/>
	<line class="st0" x1="474.4" y1="198.5" x2="296.4" y2="198.5"/>
	<line class="st0" x1="120.9" y1="198.5" x2="296.4" y2="198.5"/>
	<line class="st0" x1="474.4" y1="396.8" x2="298.9" y2="396.8"/>
	<line class="st0" x1="298.9" y1="396.8" x2="298.9" y2="446.8"/>
	<line class="st0" x1="296.4" y1="198.5" x2="296.4" y2="145.7"/>
	<line class="st0" x1="298.9" y1="446.8" x2="161.6" y2="446.8"/>
	<line class="st0" x1="298.9" y1="446.8" x2="434.8" y2="446.8"/>
	<line class="st0" x1="296.4" y1="145.7" x2="431.7" y2="145.7"/>
	<line class="st0" x1="298.9" y1="446.8" x2="298.9" y2="500.3"/>
	<line id="_x3C_直線_x3E_" class="st0" x1="296.4" y1="145.7" x2="296.4" y2="95"/>
</g>
<circle id="circle" class="st0" cx="297.6" cy="297.6" r="202.6"/>
<g id="c_x5F_circle_1_">
	<circle class="st1" cx="299.3" cy="77.7" r="4.6"/>
	<circle id="_x3C_楕円形_x3E_" class="st1" cx="318.4" cy="78.7" r="4.6"/>
	<circle class="st1" cx="337.4" cy="81.3" r="4.6"/>
	<circle class="st1" cx="356.1" cy="85.6" r="4.6"/>
	<circle class="st1" cx="374.4" cy="91.5" r="4.6"/>
	<circle class="st1" cx="392.1" cy="99" r="4.6"/>
	<circle class="st1" cx="409" cy="108" r="4.6"/>
	<circle class="st1" cx="425.1" cy="118.4" r="4.6"/>
	<circle class="st1" cx="440.3" cy="130.2" r="4.6"/>
	<circle class="st1" cx="454.3" cy="143.3" r="4.6"/>
	<circle class="st1" cx="467.2" cy="157.5" r="4.6"/>
	<circle class="st1" cx="478.7" cy="172.8" r="4.6"/>
	<circle class="st1" cx="488.9" cy="189.1" r="4.6"/>
	<circle class="st1" cx="497.7" cy="206.2" r="4.6"/>
	<circle class="st1" cx="504.9" cy="223.9" r="4.6"/>
	<circle class="st1" cx="510.5" cy="242.3" r="4.6"/>
	<circle class="st1" cx="514.5" cy="261.1" r="4.6"/>
	<circle class="st1" cx="516.9" cy="280.1" r="4.6"/>
	<circle class="st1" cx="517.6" cy="299.3" r="4.6"/>
	<circle class="st1" cx="516.6" cy="318.4" r="4.6"/>
	<circle class="st1" cx="514" cy="337.4" r="4.6"/>
	<circle class="st1" cx="509.7" cy="356.1" r="4.6"/>
	<circle class="st1" cx="503.8" cy="374.4" r="4.6"/>
	<circle class="st1" cx="496.3" cy="392.1" r="4.6"/>
	<circle class="st1" cx="487.3" cy="409" r="4.6"/>
	<circle class="st1" cx="476.9" cy="425.1" r="4.6"/>
	<circle class="st1" cx="465.1" cy="440.3" r="4.6"/>
	<circle class="st1" cx="452" cy="454.3" r="4.6"/>
	<circle class="st1" cx="437.8" cy="467.2" r="4.6"/>
	<circle class="st1" cx="422.5" cy="478.7" r="4.6"/>
	<circle class="st1" cx="406.2" cy="488.9" r="4.6"/>
	<circle class="st1" cx="389.1" cy="497.7" r="4.6"/>
	<circle class="st1" cx="371.3" cy="504.9" r="4.6"/>
	<circle class="st1" cx="353" cy="510.5" r="4.6"/>
	<circle class="st1" cx="334.2" cy="514.5" r="4.6"/>
	<circle class="st1" cx="315.2" cy="516.9" r="4.6"/>
	<circle class="st1" cx="296" cy="517.6" r="4.6"/>
	<circle class="st1" cx="276.8" cy="516.6" r="4.6"/>
	<circle class="st1" cx="257.8" cy="514" r="4.6"/>
	<circle class="st1" cx="239.1" cy="509.7" r="4.6"/>
	<circle class="st1" cx="220.9" cy="503.8" r="4.6"/>
	<circle class="st1" cx="203.2" cy="496.3" r="4.6"/>
	<circle class="st1" cx="186.2" cy="487.3" r="4.6"/>
	<circle class="st1" cx="170.1" cy="476.9" r="4.6"/>
	<circle class="st1" cx="155" cy="465.1" r="4.6"/>
	<circle class="st1" cx="141" cy="452" r="4.6"/>
	<circle class="st1" cx="128.1" cy="437.8" r="4.6"/>
	<circle class="st1" cx="116.5" cy="422.5" r="4.6"/>
	<circle class="st1" cx="106.3" cy="406.2" r="4.6"/>
	<circle class="st1" cx="97.6" cy="389.1" r="4.6"/>
	<circle class="st1" cx="90.4" cy="371.3" r="4.6"/>
	<circle class="st1" cx="84.8" cy="353" r="4.6"/>
	<circle class="st1" cx="80.8" cy="334.2" r="4.6"/>
	<circle class="st1" cx="78.4" cy="315.2" r="4.6"/>
	<circle class="st1" cx="77.7" cy="296" r="4.6"/>
	<circle class="st1" cx="78.7" cy="276.8" r="4.6"/>
	<circle class="st1" cx="81.3" cy="257.8" r="4.6"/>
	<circle class="st1" cx="85.6" cy="239.1" r="4.6"/>
	<circle class="st1" cx="91.5" cy="220.9" r="4.6"/>
	<circle class="st1" cx="99" cy="203.2" r="4.6"/>
	<circle class="st1" cx="108" cy="186.2" r="4.6"/>
	<circle class="st1" cx="118.4" cy="170.1" r="4.6"/>
	<circle class="st1" cx="130.2" cy="155" r="4.6"/>
	<circle class="st1" cx="143.3" cy="141" r="4.6"/>
	<circle class="st1" cx="157.5" cy="128.1" r="4.6"/>
	<circle class="st1" cx="172.8" cy="116.5" r="4.6"/>
	<circle class="st1" cx="189.1" cy="106.3" r="4.6"/>
	<circle class="st1" cx="206.2" cy="97.6" r="4.6"/>
	<circle class="st1" cx="223.9" cy="90.4" r="4.6"/>
	<circle class="st1" cx="242.3" cy="84.8" r="4.6"/>
	<circle class="st1" cx="261.1" cy="80.8" r="4.6"/>
	<circle class="st1" cx="280.1" cy="78.4" r="4.6"/>
</g>
</svg>
